# xmcd CD database file
#
# Track frame offsets:
#	150
#	19317
#	31915
#	45967
#	60142
#	76007
#	88553
#	100823
#	115062
#	131304
#	143571
#	154278
#	165642
#	177635
#	191226
#	204147
#	217498
#	229978
#	240638
#	253667
#	270368
#	289916
#	299594
#	312656
#	324426
#
# Disc length: 4793 seconds
#
# Revision: 0
# Processed by: cddbd v1.5.2PL0 Copyright (c) Steve Scherf et al.
# Submitted via: CDex 1.51
#
DISCID=6412b719
DTITLE=B.B. KING - Here's One You Didn't Know About: - From The RPM and Kent Vaults
DYEAR=2015
DGENRE=Blues
TTITLE0=Catfish Blues Aka Fishin' After Me(Alt Version Kent 351)
TTITLE1=Be Careful Baby
TTITLE2=Growing Old(Take 2 Of Kent 470)
TTITLE3=Gotta Find My Baby Aka What A Way To Go(1960s Version)
TTITLE4=Long Nights(The Feeling They Call The Blues)(Take 4 Of Kent 389)
TTITLE5=Loving You In Vain Aka Heartache And Pain(Alt Of Ace COCHM 996)
TTITLE6=Shut Your Mouth(Take 1 Of RPM 430)
TTITLE7=Sweet Little Angel(Version 1)(Alt Of Ace RPM 468)
TTITLE8=Sweet Little Angel(Version 2)(Take 1 Of RPM LP 3005)
TTITLE9=Bad Case Of Love(Take 6 Of Kent 362)
TTITLE10=Talkin' The Blues(Take 2 Of RPM 435)
TTITLE11=Whole Lot Of Lovin'(1963 Re-Record)(Take 1 Of Kent 388)
TTITLE12=You Know I Go For You(Alt Of Kent 301)
TTITLE13=You've Been An Angel(Take 1 Of Kent 315)
TTITLE14=Be Careful With A Fool(Take 11 Of RPM 494)
TTITLE15=When My Heart Beats Like A Hammer(Take 1Of RPM 412)
TTITLE16=Don't You Want A Man Like Me(Take 3 Of RPM 411)
TTITLE17=Early In The Morning(Take 2 Of RPM 486)
TTITLE18=I Wonder Why(Take 4 Of Kent 447)
TTITLE19=Partin' Time(Take 3 Of Kent 346)
TTITLE20=Soul Beat Aka Powerhouse(Take 1 Of Kent 475)
TTITLE21=Why Not(Take 8-A Of Ace ABOXCD 8)
TTITLE22=The Woman I Love(Copper Colored Mama)(Take 3 Of RPM 408)
TTITLE23=Whole Lotta Meat Aka Hey Little Girl(Take 10 Of Ace LP CHD 201)
TTITLE24=Going Down Slow(1959 Version)(Take 2 Of Galaxy LP 8202)
EXTD=YEAR: 2015
EXTT0=
EXTT1=
EXTT2=
EXTT3=
EXTT4=
EXTT5=
EXTT6=
EXTT7=
EXTT8=
EXTT9=
EXTT10=
EXTT11=
EXTT12=
EXTT13=
EXTT14=
EXTT15=
EXTT16=
EXTT17=
EXTT18=
EXTT19=
EXTT20=
EXTT21=
EXTT22=
EXTT23=
EXTT24=
PLAYORDER=
